name Run_30002_IK.mot
datacolumns 164
datarows 4
range 1.41 1.44
endheader
time	         pelvis_tilt	         pelvis_list	     pelvis_rotation	           pelvis_tx	           pelvis_ty	           pelvis_tz	       hip_flexion_r	     hip_adduction_r	      hip_rotation_r	        knee_angle_r	       ankle_angle_r	       hip_flexion_l	     hip_adduction_l	      hip_rotation_l	        knee_angle_l	       ankle_angle_l	    lumbar_extension	      lumbar_bending	     lumbar_rotation	          arm_flex_r	           arm_add_r	           arm_rot_r	        elbow_flex_r	           pro_sup_r	          arm_flex_l	           arm_add_l	           arm_rot_l	        elbow_flex_l	           pro_sup_l	    subtalar_angle_r	         mtp_angle_r	    subtalar_angle_l	         mtp_angle_l	        wrist_flex_r	         wrist_dev_r	        wrist_flex_l	         wrist_dev_l	             LASI_tx	             LASI_ty	             LASI_tz	             RASI_tx	             RASI_ty	             RASI_tz	             LPSI_tx	             LPSI_ty	             LPSI_tz	             RPSI_tx	             RPSI_ty	             RPSI_tz	             RTH1_tx	             RTH1_ty	             RTH1_tz	             RTH2_tx	             RTH2_ty	             RTH2_tz	             RTH3_tx	             RTH3_ty	             RTH3_tz	             LTH1_tx	             LTH1_ty	             LTH1_tz	             LTH2_tx	             LTH2_ty	             LTH2_tz	             LTH3_tx	             LTH3_ty	             LTH3_tz	             RTB1_tx	             RTB1_ty	             RTB1_tz	             RTB2_tx	             RTB2_ty	             RTB2_tz	             RTB3_tx	             RTB3_ty	             RTB3_tz	             LTB1_tx	             LTB1_ty	             LTB1_tz	             LTB2_tx	             LTB2_ty	             LTB2_tz	             LTB3_tx	             LTB3_ty	             LTB3_tz	             RCAL_tx	             RCAL_ty	             RCAL_tz	             RTOE_tx	             RTOE_ty	             RTOE_tz	             RMT5_tx	             RMT5_ty	             RMT5_tz	             LCAL_tx	             LCAL_ty	             LCAL_tz	             LTOE_tx	             LTOE_ty	             LTOE_tz	             LMT5_tx	             LMT5_ty	             LMT5_tz	             LACR_tx	             LACR_ty	             LACR_tz	             RACR_tx	             RACR_ty	             RACR_tz	             CLAV_tx	             CLAV_ty	             CLAV_tz	               C7_tx	               C7_ty	               C7_tz	             RUA1_tx	             RUA1_ty	             RUA1_tz	             RUA2_tx	             RUA2_ty	             RUA2_tz	             RUA3_tx	             RUA3_ty	             RUA3_tz	             RLEL_tx	             RLEL_ty	             RLEL_tz	             RMEL_tx	             RMEL_ty	             RMEL_tz	             LUA1_tx	             LUA1_ty	             LUA1_tz	             LUA2_tx	             LUA2_ty	             LUA2_tz	             LUA3_tx	             LUA3_ty	             LUA3_tz	             LLEL_tx	             LLEL_ty	             LLEL_tz	             LMEL_tx	             LMEL_ty	             LMEL_tz	      RFAsuperior_tx	      RFAsuperior_ty	      RFAsuperior_tz	        RFAradius_tx	        RFAradius_ty	        RFAradius_tz	          RFAulna_tx	          RFAulna_ty	          RFAulna_tz	      LFAsuperior_tx	      LFAsuperior_ty	      LFAsuperior_tz	        LFAradius_tx	        LFAradius_ty	        LFAradius_tz	          LFAulna_tx	          LFAulna_ty	          LFAulna_tz	
1.41	        -12.05578896	         -2.59454590	         -3.51395355	          0.99106556	          0.98723343	         -0.34465404	         16.67767490	          7.52237960	          2.37903132	        -33.67792028	         21.38741667	         45.92875374	         -2.68687287	         -0.77997528	        -89.31498395	          4.36167942	         -0.98920875	          6.52994176	         11.40791196	        -15.66144991	        -21.81019222	         -7.80204711	        104.77493666	        107.09456605	        -35.16487195	        -14.03933044	         -1.09708339	        102.08766038	        101.18851835	          0.00000000	          0.00000000	          0.00000000	          0.00000000	          0.00000000	          0.00000000	          0.00000000	          0.00000000	          1.01212696	          1.02298730	         -0.47732582	          1.00293548	          1.03281869	         -0.21914723	          0.85453312	          1.08684752	         -0.41184235	          0.84601588	          1.08485263	         -0.29913878	          0.92185957	          0.91196599	         -0.17192970	          0.87507755	          0.76389054	         -0.19915410	          0.92395917	          0.61076987	         -0.21355488	          0.98363624	          0.90239845	         -0.52354118	          0.98421825	          0.74454358	         -0.49446506	          1.09637499	          0.64988321	         -0.49221335	          0.92303795	          0.35579158	         -0.29761693	          0.83437919	          0.34149186	         -0.22683649	          0.80911375	          0.20130259	         -0.31352765	          1.10916347	          0.45188535	         -0.43025190	          0.96977406	          0.45401155	         -0.48172950	          0.92111249	          0.34166351	         -0.42873679	          0.63681782	          0.11928206	         -0.31181436	          0.87335844	          0.07074185	         -0.34696215	          0.82454284	          0.05052436	         -0.24928393	          0.73532710	          0.35651026	         -0.40130881	          0.87548590	          0.16405401	         -0.40347979	          0.81093019	          0.17627425	         -0.49484833	          0.97829226	          1.51939027	         -0.49012255	          1.02505821	          1.48265121	         -0.16925407	          1.06464172	          1.45878168	         -0.30436947	          0.94365498	          1.53278499	         -0.32662791	          0.93715999	          1.37507766	         -0.09477040	          0.98555800	          1.31633624	         -0.08135414	          0.93340547	          1.23290944	         -0.03444220	          0.91337717	          1.17047063	         -0.00645187	          0.90097342	          1.14737957	         -0.09272728	          0.86145908	          1.44142003	         -0.53116632	          0.87241419	          1.36657212	         -0.57076077	          0.78614669	          1.32156564	         -0.58836683	          0.75373674	          1.26260208	         -0.61178532	          0.73993484	          1.24188646	         -0.52438730	          1.01259219	          1.12697972	         -0.03021699	          1.14646400	          1.11668753	         -0.15187044	          1.13958374	          1.06229904	         -0.10957595	          0.79985098	          1.18808976	         -0.61260988	          0.96205578	          1.12198667	         -0.53591589	          0.92728370	          1.06869907	         -0.56993704	
1.42	        -11.94916210	         -2.27164770	         -2.99680307	          0.99277555	          0.99468643	         -0.34477552	         13.04110143	          6.94795972	          2.43234706	        -30.39602087	         18.93238104	         46.69875265	         -2.31164338	         -1.24167355	        -85.48633209	          4.80079546	         -0.77738118	          5.89293597	         11.75675426	        -15.23979265	        -21.38068932	         -7.94436018	        107.22134987	        108.12181609	        -36.85462157	        -14.47182835	         -1.99686070	        104.43589678	        102.28292994	          0.00000000	          0.00000000	          0.00000000	          0.00000000	          0.00000000	          0.00000000	          0.00000000	          0.00000000	          1.01258487	          1.03045118	         -0.47733009	          1.00518488	          1.03942335	         -0.21881182	          0.85527968	          1.09411596	         -0.41053130	          0.84789649	          1.09159030	         -0.29762502	          0.92211534	          0.91699595	         -0.17281671	          0.86734706	          0.77160460	         -0.19861261	          0.90729357	          0.61676064	         -0.21439448	          0.98451337	          0.91177662	         -0.52456355	          0.98754029	          0.75332067	         -0.49377058	          1.10160861	          0.66159639	         -0.49217938	          0.89727138	          0.36112793	         -0.29685793	          0.80859963	          0.34810464	         -0.22720478	          0.78321726	          0.20752141	         -0.31412331	          1.12412563	          0.46080572	         -0.43155176	          0.98387554	          0.45194279	         -0.47946423	          0.94541077	          0.33535328	         -0.42622336	          0.61058309	          0.12845166	         -0.31128394	          0.84393850	          0.07058807	         -0.34814619	          0.79444916	          0.05104987	         -0.25014124	          0.75947507	          0.33419255	         -0.39591819	          0.91637654	          0.15531804	         -0.40152094	          0.84874311	          0.16107261	         -0.49079994	          0.97576340	          1.52712768	         -0.49046021	          1.02704833	          1.49120710	         -0.17056584	          1.06514830	          1.46649729	         -0.30673580	          0.94388856	          1.53966287	         -0.32672765	          0.94053567	          1.38282163	         -0.09559210	          0.99035642	          1.32454304	         -0.08270833	          0.94068819	          1.24013910	         -0.03569346	          0.92153629	          1.17712674	         -0.00801786	          0.90799158	          1.15484330	         -0.09464750	          0.85711425	          1.45256916	         -0.52902983	          0.86588466	          1.37762205	         -0.57006977	          0.77888557	          1.33393447	         -0.58672031	          0.74462408	          1.27603825	         -0.60890847	          0.73215078	          1.25534502	         -0.52139373	          1.02171190	          1.13866162	         -0.03464085	          1.15300325	          1.13700660	         -0.15912642	          1.15060145	          1.08211825	         -0.11697263	          0.79151854	          1.20305925	         -0.61098024	          0.95522083	          1.13882422	         -0.53699445	          0.92142340	          1.08529918	         -0.57181712	
1.43	        -11.79888553	         -1.87682463	         -2.34138482	          0.99480379	          1.00252974	         -0.34492127	          9.48021248	          6.26935833	          2.21031077	        -27.19322974	         15.72123811	         47.08312833	         -1.84146853	         -1.84327397	        -81.13983886	          5.15174192	         -0.60158967	          5.15723424	         11.86558071	        -14.93169179	        -20.92067844	         -7.98901609	        109.67908010	        109.12598628	        -38.53192521	        -14.88178644	         -3.00887250	        106.71874707	        103.33921571	          0.00000000	          0.00000000	          0.00000000	          0.00000000	          0.00000000	          0.00000000	          0.00000000	          0.00000000	          1.01294416	          1.03855102	         -0.47708226	          1.00803951	          1.04630393	         -0.21845624	          0.85593616	          1.10201159	         -0.40896741	          0.85037718	          1.09870121	         -0.29605272	          0.92342367	          0.92238903	         -0.17382435	          0.86046433	          0.78011185	         -0.19815574	          0.89151287	          0.62409383	         -0.21496342	          0.98520533	          0.92144664	         -0.52552795	          0.98989465	          0.76251887	         -0.49253668	          1.10523876	          0.67301094	         -0.49190361	          0.87267405	          0.36817698	         -0.29573539	          0.78415961	          0.35639979	         -0.22717789	          0.75885382	          0.21537337	         -0.31421399	          1.13743470	          0.46939022	         -0.43313252	          0.99695809	          0.44921611	         -0.47661141	          0.96996069	          0.32891332	         -0.42352201	          0.58628400	          0.13987951	         -0.31057677	          0.81476454	          0.07028326	         -0.34852246	          0.76495701	          0.05192614	         -0.25060910	          0.78577716	          0.31112470	         -0.38892577	          0.95790077	          0.14750296	         -0.40067352	          0.88714541	          0.14694408	         -0.48705428	          0.97379025	          1.53510234	         -0.49073062	          1.02904580	          1.50001183	         -0.17193720	          1.06572501	          1.47466195	         -0.30904537	          0.94424201	          1.54683749	         -0.32677255	          0.94375103	          1.39108060	         -0.09630259	          0.99488691	          1.33308226	         -0.08405460	          0.94724645	          1.24808758	         -0.03676969	          0.92878445	          1.18448717	         -0.00945921	          0.91395738	          1.16294659	         -0.09633648	          0.85355173	          1.46416678	         -0.52701746	          0.86022874	          1.38888391	         -0.56923906	          0.77244640	          1.34660907	         -0.58500948	          0.73626178	          1.28969544	         -0.60589492	          0.72527129	          1.26900083	         -0.51833431	          1.02945396	          1.15063403	         -0.03889864	          1.15783692	          1.15762955	         -0.16595925	          1.15966538	          1.10250447	         -0.12400495	          0.78360576	          1.21783182	         -0.60920761	          0.94914971	          1.15572014	         -0.53790424	          0.91620976	          1.10211326	         -0.57363507	
1.44	        -11.69417490	         -1.40325088	         -1.61417578	          0.99703772	          1.01038007	         -0.34511223	          6.18553392	          5.50670315	          1.68096069	        -24.24404100	         11.89123985	         47.17224438	         -1.26890770	         -2.61145602	        -76.31507786	          5.49691611	         -0.39207929	          4.33216686	         11.81052479	        -14.76372834	        -20.49301502	         -7.90454100	        112.16855058	        109.92359759	        -40.18528483	        -15.26320553	         -4.05369628	        108.87400357	        104.01624861	          0.00000000	          0.00000000	          0.00000000	          0.00000000	          0.00000000	          0.00000000	          0.00000000	          0.00000000	          1.01343507	          1.04694033	         -0.47680806	          1.01140671	          1.05330998	         -0.21806469	          0.85677440	          1.11019514	         -0.40736840	          0.85336680	          1.10594152	         -0.29442722	          0.92513546	          0.92808388	         -0.17479604	          0.85444255	          0.78908594	         -0.19773873	          0.87695020	          0.63246256	         -0.21523264	          0.98534217	          0.93101652	         -0.52637934	          0.99126304	          0.77177539	         -0.49085765	          1.10716236	          0.68364526	         -0.49116294	          0.84987965	          0.37629151	         -0.29457491	          0.76127817	          0.36596331	         -0.22676184	          0.73621747	          0.22427327	         -0.31355860	          1.14894655	          0.47739234	         -0.43440476	          1.00917588	          0.44565071	         -0.47330740	          0.99468914	          0.32255788	         -0.42079427	          0.56411581	          0.15311591	         -0.30970975	          0.78596891	          0.06983637	         -0.34810855	          0.73613220	          0.05330494	         -0.25057390	          0.81403488	          0.28781863	         -0.38079371	          0.99986531	          0.14099233	         -0.40044287	          0.92612845	          0.13413748	         -0.48355652	          0.97238456	          1.54318159	         -0.49095266	          1.03118308	          1.50863288	         -0.17351814	          1.06642845	          1.48291564	         -0.31116742	          0.94463188	          1.55400558	         -0.32685203	          0.94719396	          1.39969646	         -0.09666820	          0.99924225	          1.34176020	         -0.08536000	          0.95296991	          1.25651420	         -0.03754880	          0.93517727	          1.19230551	         -0.01056742	          0.91907510	          1.17138035	         -0.09763781	          0.85078934	          1.47570839	         -0.52540256	          0.85559059	          1.39999296	         -0.56830203	          0.76681214	          1.35944573	         -0.58312206	          0.72879010	          1.30339426	         -0.60286761	          0.71935461	          1.28246926	         -0.51530637	          1.03612025	          1.16306181	         -0.04266268	          1.16110221	          1.17817625	         -0.17224214	          1.16679871	          1.12292103	         -0.13075872	          0.77638660	          1.23230495	         -0.60730138	          0.94378853	          1.17223554	         -0.53879300	          0.91145340	          1.11853903	         -0.57507367	
